<svg width="698" height="160" viewBox="0 0 698 160" fill="none" xmlns="http://www.w3.org/2000/svg">
<path d="M0 60C0 31.7157 0 17.5736 8.7868 8.7868C17.5736 0 31.7157 0 60 0H160V160H60C31.7157 160 17.5736 160 8.7868 151.213C0 142.426 0 128.284 0 100V60Z" fill="#FFD230"/>
<path d="M50 46.6667V50C50 53.3333 56.6667 53.3333 56.6667 56.6667C56.6667 60 50 60 50 63.3333C50 66.6667 56.6667 66.6667 56.6667 70C56.6667 73.3333 50 73.3333 50 76.6667C50 80 56.6667 80 56.6667 83.3333" stroke="black" stroke-width="5.20833" stroke-linecap="round" stroke-linejoin="round"/>
<path d="M100 60H100.033" stroke="black" stroke-width="5.20833" stroke-linecap="round" stroke-linejoin="round"/>
<path d="M60 100H60.0333" stroke="black" stroke-width="5.20833" stroke-linecap="round" stroke-linejoin="round"/>
<path d="M109.433 69.4333C110.672 68.1945 111.655 66.7239 112.325 65.1053C112.996 63.4867 113.341 61.7519 113.341 60C113.341 58.2481 112.996 56.5133 112.325 54.8947C111.655 53.2761 110.672 51.8055 109.433 50.5667C108.195 49.3279 106.724 48.3452 105.105 47.6748C103.487 47.0043 101.752 46.6593 100 46.6593C98.2481 46.6593 96.5133 47.0043 94.8947 47.6748C93.2761 48.3452 91.8055 49.3279 90.5667 50.5667L50.5667 90.5667C48.0648 93.0685 46.6592 96.4618 46.6592 100C46.6592 101.752 47.0043 103.487 47.6747 105.105C48.3452 106.724 49.3279 108.195 50.5667 109.433C51.8055 110.672 53.2761 111.655 54.8947 112.325C56.5133 112.996 58.2481 113.341 60 113.341C63.5382 113.341 66.9314 111.935 69.4333 109.433L109.433 69.4333Z" stroke="black" stroke-width="5.20833" stroke-linecap="round" stroke-linejoin="round"/>
<path d="M100 78.8667V113.333C103.536 113.333 106.928 111.929 109.428 109.428C111.929 106.928 113.333 103.536 113.333 100V60" stroke="black" stroke-width="5.20833" stroke-linecap="round" stroke-linejoin="round"/>
<path d="M160 0H638C666.284 0 680.426 0 689.213 8.7868C698 17.5736 698 31.7157 698 60V100C698 128.284 698 142.426 689.213 151.213C680.426 160 666.284 160 638 160H160V0Z" fill="black"/>
<path d="M267.112 74.632L266.944 74.24C266.347 72.896 265.6 71.72 264.704 70.712C263.845 69.6667 262.744 68.8267 261.4 68.192C260.056 67.5573 258.469 67.24 256.64 67.24H256.36V94.456C257.069 94.456 258.283 94.344 260 94.12C261.717 93.8587 262.949 93.6347 263.696 93.448L263.92 93.784L262.632 100.56H247.512V100C247.699 97.1253 247.792 94.1387 247.792 91.04V67.24H247.512C245.757 67.24 244.208 67.5387 242.864 68.136C241.557 68.7333 240.437 69.5547 239.504 70.6C238.608 71.608 237.861 72.8213 237.264 74.24L237.096 74.632L232 72.784L235.864 58H242.976L243.2 58.28L241.632 61.36H262.576L260.952 58.28L261.232 58H268.344L272.208 72.784L267.112 74.632Z" fill="white"/>
<path d="M284.843 101.12C281.968 101.12 279.374 100.504 277.059 99.272C274.782 98.0027 272.99 96.2667 271.683 94.064C270.376 91.824 269.723 89.3227 269.723 86.56C269.723 83.76 270.376 81.2587 271.683 79.056C272.99 76.8533 274.782 75.136 277.059 73.904C279.336 72.6347 281.931 72 284.843 72C287.792 72 290.406 72.6347 292.683 73.904C294.96 75.136 296.734 76.8533 298.003 79.056C299.31 81.2587 299.963 83.76 299.963 86.56C299.963 89.3227 299.31 91.8053 298.003 94.008C296.696 96.2107 294.886 97.9467 292.571 99.216C290.294 100.485 287.718 101.12 284.843 101.12ZM284.843 94.848C286.299 94.848 287.606 94.4933 288.763 93.784C289.958 93.0747 290.872 92.0853 291.507 90.816C292.179 89.5467 292.515 88.128 292.515 86.56C292.515 84.992 292.179 83.5733 291.507 82.304C290.872 81.0347 289.958 80.0453 288.763 79.336C287.606 78.6267 286.299 78.272 284.843 78.272C283.387 78.272 282.08 78.6267 280.923 79.336C279.766 80.0453 278.851 81.0347 278.179 82.304C277.507 83.5733 277.171 84.992 277.171 86.56C277.171 88.128 277.507 89.5467 278.179 90.816C278.851 92.0853 279.766 93.0747 280.923 93.784C282.08 94.4933 283.387 94.848 284.843 94.848Z" fill="white"/>
<path d="M318.913 101.12C316.039 101.12 313.444 100.504 311.129 99.272C308.852 98.0027 307.06 96.2667 305.753 94.064C304.447 91.824 303.793 89.3227 303.793 86.56C303.793 83.76 304.447 81.2587 305.753 79.056C307.06 76.8533 308.852 75.136 311.129 73.904C313.407 72.6347 316.001 72 318.913 72C321.863 72 324.476 72.6347 326.753 73.904C329.031 75.136 330.804 76.8533 332.073 79.056C333.38 81.2587 334.033 83.76 334.033 86.56C334.033 89.3227 333.38 91.8053 332.073 94.008C330.767 96.2107 328.956 97.9467 326.641 99.216C324.364 100.485 321.788 101.12 318.913 101.12ZM318.913 94.848C320.369 94.848 321.676 94.4933 322.833 93.784C324.028 93.0747 324.943 92.0853 325.577 90.816C326.249 89.5467 326.585 88.128 326.585 86.56C326.585 84.992 326.249 83.5733 325.577 82.304C324.943 81.0347 324.028 80.0453 322.833 79.336C321.676 78.6267 320.369 78.272 318.913 78.272C317.457 78.272 316.151 78.6267 314.993 79.336C313.836 80.0453 312.921 81.0347 312.249 82.304C311.577 83.5733 311.241 84.992 311.241 86.56C311.241 88.128 311.577 89.5467 312.249 90.816C312.921 92.0853 313.836 93.0747 314.993 93.784C316.151 94.4933 317.457 94.848 318.913 94.848Z" fill="white"/>
<path d="M341.056 100C341.242 97.0133 341.336 94.0267 341.336 91.04V67.016C340.701 67.016 339.394 67.2587 337.416 67.744L336.632 67.912L336.464 67.576L337.584 61.36H342.68C343.65 61.36 344.733 61.3227 345.928 61.248C347.16 61.1733 348.093 61.08 348.728 60.968L348.84 61.304C348.802 62.3493 348.746 63.824 348.672 65.728C348.597 67.9307 348.56 69.648 348.56 70.88V94.456C348.97 94.456 349.698 94.344 350.744 94.12C351.826 93.8587 352.778 93.6347 353.6 93.448L353.824 93.784L352.592 100.56H341.056V100Z" fill="white"/>
<path d="M376.559 83.032C375.961 81.8 375.196 80.7733 374.263 79.952C373.367 79.0933 372.396 78.4587 371.351 78.048C370.305 77.6373 369.241 77.432 368.159 77.432C366.74 77.432 365.676 77.6747 364.967 78.16C364.257 78.608 363.903 79.224 363.903 80.008C363.903 80.7173 364.183 81.296 364.743 81.744C365.303 82.1547 365.993 82.5093 366.815 82.808C367.673 83.0693 368.849 83.3867 370.343 83.76C370.492 83.7973 370.623 83.8347 370.735 83.872C370.884 83.872 371.033 83.8907 371.183 83.928C371.369 83.9653 371.537 84.0027 371.687 84.04C371.836 84.0773 372.004 84.1147 372.191 84.152C374.617 84.7493 376.54 85.3467 377.959 85.944C379.415 86.5413 380.609 87.4187 381.543 88.576C382.513 89.7333 382.999 91.264 382.999 93.168C382.999 95.856 381.935 97.8907 379.807 99.272C377.679 100.653 375.047 101.344 371.911 101.344C370.679 101.344 369.503 101.232 368.383 101.008C367.263 100.784 366.273 100.523 365.415 100.224C365.153 100.112 364.911 100 364.687 99.888C364.5 99.776 364.313 99.664 364.127 99.552L365.303 102.632L365.079 102.912H358.863L356.007 91.376L361.215 89.864C361.887 91.1333 362.689 92.2347 363.623 93.168C364.593 94.064 365.713 94.7733 366.983 95.296C368.252 95.7813 369.689 96.024 371.295 96.024C372.713 96.024 373.833 95.8 374.655 95.352C375.476 94.904 375.887 94.288 375.887 93.504C375.887 92.7947 375.625 92.2347 375.103 91.824C374.58 91.376 373.833 91.0027 372.863 90.704C371.892 90.4053 370.417 90.032 368.439 89.584L368.159 89.528C366.068 89.0427 364.201 88.464 362.559 87.792C360.953 87.12 359.591 86.168 358.471 84.936C357.388 83.704 356.847 82.1547 356.847 80.288C356.847 77.6 357.873 75.5467 359.927 74.128C361.98 72.7093 364.537 72 367.599 72C368.569 72 369.447 72.056 370.231 72.168C371.052 72.28 371.761 72.448 372.359 72.672C372.508 72.7093 372.657 72.7653 372.807 72.84C372.993 72.9147 373.161 72.9707 373.311 73.008L372.247 70.488L372.527 70.208H378.967L381.935 81.52L376.559 83.032Z" fill="white"/>
<path d="M418.529 101.12C416.625 101.12 414.87 100.747 413.265 100C411.697 99.2533 410.371 98.208 409.289 96.864C409.289 97.0507 409.289 97.256 409.289 97.48C409.326 97.6667 409.345 97.8533 409.345 98.04C409.345 98.376 409.345 98.712 409.345 99.048C409.382 99.3467 409.419 99.664 409.457 100V100.56H403.017V100C403.203 97.0133 403.297 94.0267 403.297 91.04V67.016C402.662 67.016 401.355 67.2587 399.377 67.744L398.593 67.912L398.425 67.576L399.545 61.36H404.641C405.574 61.36 406.657 61.3227 407.889 61.248C409.158 61.1733 410.091 61.08 410.689 60.968L410.801 61.304C410.763 62.3493 410.707 63.824 410.633 65.728C410.558 67.9307 410.521 69.648 410.521 70.88V75.304C411.529 74.2587 412.705 73.456 414.049 72.896C415.393 72.2987 416.886 72 418.529 72C421.105 72 423.419 72.6347 425.473 73.904C427.563 75.136 429.169 76.8533 430.289 79.056C431.446 81.2587 432.025 83.76 432.025 86.56C432.025 89.3227 431.446 91.8053 430.289 94.008C429.131 96.2107 427.526 97.9467 425.473 99.216C423.419 100.485 421.105 101.12 418.529 101.12ZM417.409 94.848C418.715 94.848 419.91 94.4933 420.993 93.784C422.113 93.0747 422.99 92.0853 423.625 90.816C424.259 89.5467 424.577 88.128 424.577 86.56C424.577 84.992 424.259 83.5733 423.625 82.304C422.99 81.0347 422.113 80.0453 420.993 79.336C419.91 78.6267 418.715 78.272 417.409 78.272C416.027 78.272 414.777 78.6267 413.657 79.336C412.574 80.0453 411.715 81.0347 411.081 82.304C410.446 83.5733 410.129 84.992 410.129 86.56C410.129 88.128 410.446 89.5467 411.081 90.816C411.715 92.0853 412.574 93.0747 413.657 93.784C414.777 94.4933 416.027 94.848 417.409 94.848Z" fill="white"/>
<path d="M434.87 101.12L440.134 99.44L440.246 99.776L440.526 100.56C441.086 101.941 441.609 103.043 442.094 103.864C442.579 104.723 443.102 105.376 443.662 105.824C444.222 106.272 444.857 106.496 445.566 106.496C446.126 106.496 446.574 106.291 446.91 105.88C447.283 105.469 447.47 104.853 447.47 104.032V103.584C447.47 102.949 447.395 102.277 447.246 101.568C447.097 100.896 446.854 100.187 446.518 99.44C446.481 99.4027 446.462 99.3653 446.462 99.328C446.462 99.2907 446.443 99.2533 446.406 99.216L439.126 84.88C437.819 82.192 436.083 78.9813 433.918 75.248L432.63 73.064V72.56H447.638L448.534 77.992L448.254 78.44C447.769 78.328 447.078 78.272 446.182 78.272C445.323 78.2347 444.558 78.216 443.886 78.216L450.102 91.992C450.214 92.216 450.307 92.44 450.382 92.664C450.457 92.8507 450.55 93.056 450.662 93.28C450.737 93.504 450.811 93.728 450.886 93.952C450.961 94.176 451.054 94.4 451.166 94.624C451.241 94.4 451.315 94.176 451.39 93.952C451.465 93.6907 451.539 93.448 451.614 93.224C451.726 92.9627 451.801 92.7387 451.838 92.552C451.913 92.328 451.987 92.0853 452.062 91.824L455.758 82.024C455.87 81.7627 456.113 81.072 456.486 79.952C456.635 79.6533 456.747 79.3547 456.822 79.056C456.934 78.7573 457.027 78.4773 457.102 78.216C456.505 78.216 455.814 78.2533 455.03 78.328C454.283 78.3653 453.63 78.44 453.07 78.552L452.79 78.216L453.742 72.56H466.51V73.064C466.062 74.0347 465.577 75.0987 465.054 76.256C463.673 79.2427 462.459 81.9867 461.414 84.488L455.814 97.872C455.515 98.5813 455.291 99.2907 455.142 100C454.993 100.672 454.918 101.344 454.918 102.016V103.416C454.918 106.216 454.227 108.4 452.846 109.968C451.465 111.536 449.691 112.32 447.526 112.32C446.929 112.32 446.35 112.264 445.79 112.152C445.23 112.04 444.707 111.891 444.222 111.704C443.699 111.48 443.27 111.256 442.934 111.032L443.718 113.44L443.494 113.664H437.558L434.87 101.12Z" fill="white"/>
<path d="M486.982 78.104C485.6 74.5573 483.528 69.9467 480.766 64.272L479.702 61.92V61.36H496.894L498.126 67.688L497.902 68.024C497.006 67.912 496.035 67.8 494.99 67.688C493.944 67.5387 493.011 67.464 492.19 67.464L501.71 93.336L507.534 77.376C507.795 76.6293 508.056 75.864 508.318 75.08C508.616 74.296 508.915 73.4933 509.214 72.672C509.662 71.2907 510.222 69.5547 510.894 67.464C510.371 67.464 509.755 67.5013 509.046 67.576C508.336 67.6507 507.646 67.744 506.974 67.856L505.854 67.968L505.63 67.632L506.974 61.36H521.87V61.976C520.824 63.9547 519.76 66.232 518.678 68.808C517.595 71.3467 516.307 74.52 514.814 78.328C514.627 78.8507 514.44 79.3547 514.254 79.84C514.067 80.3253 513.862 80.8107 513.638 81.296L505.91 100.56H495.718L486.982 78.104Z" fill="white"/>
<path d="M528.479 100C528.666 97.0133 528.759 94.0267 528.759 91.04V78.216C528.124 78.216 526.818 78.4587 524.839 78.944L524.055 79.112L523.887 78.776L525.007 72.56H530.103C531.074 72.56 532.156 72.5227 533.351 72.448C534.583 72.3733 535.516 72.28 536.151 72.168L536.263 72.504C536.076 75.192 535.983 78.384 535.983 82.08V94.904C536.394 94.904 537.626 94.68 539.679 94.232L540.631 94.008L540.799 94.344L539.679 100.56H528.479V100ZM536.655 58.84L531.615 69.368H531.055L526.015 58.84H536.655Z" fill="white"/>
<path d="M536.486 104.144L542.086 102.24L542.31 102.744C542.795 103.789 543.393 104.629 544.102 105.264C544.811 105.899 545.651 106.216 546.622 106.216C547.443 106.216 548.115 105.917 548.638 105.32C549.161 104.76 549.422 103.976 549.422 102.968C549.422 102.483 549.385 102.035 549.31 101.624C549.235 101.251 549.161 100.84 549.086 100.392C548.899 99.5707 548.731 98.6 548.582 97.48C548.47 96.36 548.414 94.8293 548.414 92.888V78.216C547.929 78.216 547.089 78.3093 545.894 78.496C544.737 78.6827 543.766 78.888 542.982 79.112L542.758 78.776L543.878 72.56H549.814C550.747 72.56 551.811 72.5227 553.006 72.448C554.238 72.3733 555.171 72.28 555.806 72.168L555.918 72.504C555.731 74.744 555.638 77.936 555.638 82.08V103.36C555.638 105.189 555.265 106.776 554.518 108.12C553.809 109.464 552.857 110.472 551.662 111.144C550.467 111.853 549.179 112.208 547.798 112.208C547.201 112.208 546.678 112.152 546.23 112.04C545.782 111.928 545.334 111.76 544.886 111.536C544.737 111.461 544.587 111.387 544.438 111.312C544.289 111.237 544.139 111.144 543.99 111.032L545.054 113.44L544.774 113.664H538.838L536.486 104.144ZM556.926 58.84L551.886 69.368H551.326L546.286 58.84H556.926Z" fill="white"/>
<path d="M571.816 101.176C568.829 101.176 566.515 100.467 564.872 99.048C563.267 97.592 562.464 95.688 562.464 93.336C562.464 91.2453 563.061 89.5653 564.256 88.296C565.451 87.0267 567 86.112 568.904 85.552C570.845 84.9547 573.216 84.544 576.016 84.32C577.472 84.208 578.648 84.0587 579.544 83.872C580.44 83.6853 581.149 83.4053 581.672 83.032C582.195 82.6587 582.456 82.1547 582.456 81.52C582.456 80.3627 582.008 79.4667 581.112 78.832C580.216 78.16 579.003 77.824 577.472 77.824C576.315 77.824 575.251 78.048 574.28 78.496C573.309 78.9067 572.451 79.5227 571.704 80.344C570.995 81.128 570.435 82.0427 570.024 83.088L569.912 83.312L564.592 82.36L567.728 70.264H574.168L574.448 70.544L573.328 73.176C573.851 72.9147 574.317 72.728 574.728 72.616C575.288 72.4293 575.885 72.28 576.52 72.168C577.192 72.056 577.939 72 578.76 72C581.859 72 584.323 72.9893 586.152 74.968C587.981 76.9467 588.896 79.6347 588.896 83.032V94.904C589.381 94.904 590.688 94.6613 592.816 94.176C592.965 94.1387 593.096 94.12 593.208 94.12C593.32 94.0827 593.432 94.0453 593.544 94.008L593.768 94.344L592.648 100.56H582.344V100C582.381 99.7013 582.4 99.384 582.4 99.048C582.437 98.6747 582.456 98.3013 582.456 97.928C582.456 97.704 582.456 97.4987 582.456 97.312C582.493 97.088 582.512 96.8827 582.512 96.696C581.392 98.0773 579.88 99.1787 577.976 100C576.072 100.784 574.019 101.176 571.816 101.176ZM573.832 95.296C575.325 95.296 576.725 94.96 578.032 94.288C579.376 93.5787 580.44 92.664 581.224 91.544C582.008 90.3867 582.4 89.1547 582.4 87.848V87.176C581.765 87.5867 580.907 87.9413 579.824 88.24C578.779 88.5013 577.696 88.688 576.576 88.8C574.411 88.9493 572.749 89.2853 571.592 89.808C570.435 90.3307 569.856 91.208 569.856 92.44C569.856 93.3733 570.211 94.0827 570.92 94.568C571.629 95.0533 572.6 95.296 573.832 95.296Z" fill="white"/>
<path d="M594.503 101.12L599.767 99.44L599.879 99.776L600.159 100.56C600.719 101.941 601.242 103.043 601.727 103.864C602.212 104.723 602.735 105.376 603.295 105.824C603.855 106.272 604.49 106.496 605.199 106.496C605.759 106.496 606.207 106.291 606.543 105.88C606.916 105.469 607.103 104.853 607.103 104.032V103.584C607.103 102.949 607.028 102.277 606.879 101.568C606.73 100.896 606.487 100.187 606.151 99.44C606.114 99.4027 606.095 99.3653 606.095 99.328C606.095 99.2907 606.076 99.2533 606.039 99.216L598.759 84.88C597.452 82.192 595.716 78.9813 593.551 75.248L592.263 73.064V72.56H607.271L608.167 77.992L607.887 78.44C607.402 78.328 606.711 78.272 605.815 78.272C604.956 78.2347 604.191 78.216 603.519 78.216L609.735 91.992C609.847 92.216 609.94 92.44 610.015 92.664C610.09 92.8507 610.183 93.056 610.295 93.28C610.37 93.504 610.444 93.728 610.519 93.952C610.594 94.176 610.687 94.4 610.799 94.624C610.874 94.4 610.948 94.176 611.023 93.952C611.098 93.6907 611.172 93.448 611.247 93.224C611.359 92.9627 611.434 92.7387 611.471 92.552C611.546 92.328 611.62 92.0853 611.695 91.824L615.391 82.024C615.503 81.7627 615.746 81.072 616.119 79.952C616.268 79.6533 616.38 79.3547 616.455 79.056C616.567 78.7573 616.66 78.4773 616.735 78.216C616.138 78.216 615.447 78.2533 614.663 78.328C613.916 78.3653 613.263 78.44 612.703 78.552L612.423 78.216L613.375 72.56H626.143V73.064C625.695 74.0347 625.21 75.0987 624.687 76.256C623.306 79.2427 622.092 81.9867 621.047 84.488L615.447 97.872C615.148 98.5813 614.924 99.2907 614.775 100C614.626 100.672 614.551 101.344 614.551 102.016V103.416C614.551 106.216 613.86 108.4 612.479 109.968C611.098 111.536 609.324 112.32 607.159 112.32C606.562 112.32 605.983 112.264 605.423 112.152C604.863 112.04 604.34 111.891 603.855 111.704C603.332 111.48 602.903 111.256 602.567 111.032L603.351 113.44L603.127 113.664H597.191L594.503 101.12Z" fill="white"/>
</svg>
